# AST/ASF file generated using VICON BodyLanguage
# -----------------------------------------------
:version 1.10
:name VICON
:units
  mass 1.0
  length 0.45
  angle deg
:documentation
   .ast/.asf automatically generated from VICON data using
   VICON BodyBuilder and BodyLanguage model FoxedUp or BRILLIANT.MOD
:root
   order TX TY TZ RX RY RZ
   axis XYZ
   position 0 0 0  
   orientation 0 0 0 
:bonedata
  begin
     id 1 
     name lhipjoint
     direction 0.630305 -0.712092 0.309259 
     length 2.29033 
     axis 0 0 0  XYZ
  end
  begin
     id 2 
     name lfemur
     direction 0.34202 -0.939693 0  
     length 6.43538  
     axis 0 0 20  XYZ
    dof rx ry rz
    limits (-160.0 20.0)
           (-70.0 70.0)
           (-60.0 70.0)
  end
  begin
     id 3 
     name ltibia
     direction 0.34202 -0.939693 0   
     length 7.43097   
     axis 0 0 20   XYZ
    dof rx
    limits (-10.0 170.0)
  end
  begin
     id 4 
     name lfoot
     direction 0.0334653 -0.0919451 0.995202   
     length 1.78438   
     axis -90 7.62852e-016 20   XYZ
    dof rx rz
    limits (-45.0 90.0)
           (-70.0 20.0)
  end
  begin
     id 5 
     name ltoes
     direction 1.53535e-011 -4.21933e-011 1   
     length 0.90832   
     axis -90 7.62852e-016 20   XYZ
    dof rx
    limits (-90.0 20.0)
  end
  begin
     id 6 
     name rhipjoint
     direction -0.682059 -0.67077 0.291312   
     length 2.43143  
     axis 0 0 0  XYZ 
  end
  begin
     id 7 
     name rfemur
     direction -0.34202 -0.939693 0   
     length 6.63488   
     axis 0 0 -20   XYZ
    dof rx ry rz
    limits (-160.0 20.0)
           (-70.0 70.0)
           (-70.0 60.0)
  end
  begin
     id 8 
     name rtibia
     direction -0.34202 -0.939693 0   
     length 6.86532   
     axis 0 0 -20   XYZ
    dof rx
    limits (-10.0 170.0)
 end
 begin
     id 9 
     name rfoot
     direction -0.105199 -0.289033 0.951521   
     length 1.77126  
     axis -90 -7.62852e-016 -20   XYZ
    dof rx rz
    limits (-45.0 90.0)
           (-20.0 70.0)
  end
  begin
     id 10 
     name rtoes
     direction -1.53551e-011 -4.21978e-011 1   
     length 0.889273   
     axis -90 -7.62852e-016 -20   XYZ
    dof rx
    limits (-90.0 20.0)
  end
  begin
     id 11 
     name lowerback
     direction -0.0514305 0.998089 0.034245   
     length 2.02077   
     axis 0 0 0   XYZ
    dof rx ry rz
    limits (-20.0 45.0)
           (-30.0 30.0)
           (-30.0 30.0)
  end
  begin
     id 12 
     name upperback
     direction 0.0203189 0.999449 -0.0262315   
     length 2.01413   
     axis 0 0 0   XYZ
    dof rx ry rz
    limits (-20.0 45.0)
           (-30.0 30.0)
           (-30.0 30.0)
  end
  begin
     id 13 
     name thorax
     direction 0.0452736 0.998142 -0.0407729   
     length 2.02986   
     axis 0 0 0   XYZ
    dof rx ry rz
    limits (-20.0 45.0)
           (-30.0 30.0)
           (-30.0 30.0)
  end
  begin
     id 14 
     name lowerneck
     direction -0.0180464 0.999645 -0.0195774   
     length 1.59034   
     axis 0 0 0   XYZ
    dof rx ry rz
    limits (-20.0 45.0)
           (-30.0 30.0)
           (-30.0 30.0)
  end
  begin
     id 15 
     name upperneck
     direction 0.0732272 0.979935 -0.18538   
     length 1.57486   
     axis 0 0 0   XYZ
    dof rx ry rz
    limits (-20.0 45.0)
           (-30.0 30.0)
           (-30.0 30.0)
  end
  begin
     id 16
     name head
     direction 0.0252963 0.997909 -0.059472  
     length 1.60334  
     axis 0 0 0   XYZ
    dof rx ry rz
    limits (-20.0 45.0)
           (-30.0 30.0)
           (-30.0 30.0)
  end
  begin
     id 17 
     name lclavicle
     direction 0.943819 0.330449 0.00315172  
     length 3.50322  
     axis 0 0 0   XYZ
    dof ry rz
    limits (-20.0 10.0)
           (0.0 20.0)
  end
  begin
     id 18 
     name lhumerus
     direction 1 -4.48949e-011 2.22502e-028   
     length 4.63208   
     axis 180 -30 -90   XYZ
    dof rx ry rz
    limits (-60.0 90.0)
           (-90.0 90.0)
           (-90.0 90.0)
  end
  begin
     id 19
     name lradius
     direction 1 -4.48967e-011 -4.10197e-027   
     length 3.41924   
     axis 180 -30 -90   XYZ
    dof rx
    limits (-10.0 170.0)
  end
  begin
     id 20
     name lwrist
     direction 1 -4.48987e-011 -1.24264e-027   
     length 1.70962   
     axis 2.50585e-015 90 90   XYZ
    dof ry
    limits (-180.0 0.0)
 end
  begin
     id 21 
     name lhand
     direction 1 -4.48983e-011 -2.48528e-027   
     length 0.62537   
     axis 1.58582e-015 90 90   XYZ
    dof rx rz
    limits (-90.0 90.0)
           (-45.0 45.0)
  end
  begin
     id 22 
     name lfingers
     direction 1 -4.48896e-011 -4.97056e-027   
     length 0.50419   
     axis 3.17164e-015 90 90   XYZ
    dof rx
    limits (0.0 90.0)
  end
  begin
     id 23
     name lthumb
     direction 0.707107 -6.34803e-011 0.707107   
     length 0.723919   
     axis -90 45 2.85299e-015   XYZ
    dof rx rz
    limits (-45.0 45.0)
           (-45.0 45.0)
  end
  begin
     id 24 
     name rclavicle
     direction -0.964499 0.260664 -0.0423695   
     length 3.91997  
     axis 0 0 0   XYZ 
    dof ry rz
    limits (-10.0 20.0)
           (-20.0 0.0)
  end
  begin
     id 25 
     name rhumerus
     direction -1 -4.48957e-011 -1.98656e-027  
     length 4.4064   
     axis 180 30 90   XYZ
    dof rx ry rz
    limits (-90.0 60.0)
           (-90.0 90.0)
           (-90.0 90.0)
  end
  begin
     id 26 
     name rradius
     direction -1 -4.48968e-011 1.96972e-027   
     length 3.44675   
     axis 180 30 90   XYZ
    dof rx
    limits (-10.0 170.0)
  end
  begin
     id 27 
     name rwrist
     direction -1 -4.48974e-011 -1.24264e-027   
     length 1.72338   
     axis 2.50585e-015 -90 -90   XYZ
    dof ry
    limits (-180.0 0.0)
  end
  begin
     id 28
     name rhand
     direction -1 -4.48901e-011 -2.48528e-027   
     length 0.513674   
     axis 1.58582e-015 -90 -90   XYZ
    dof rx rz
    limits (-90.0 90.0)
           (-45.0 45.0)
  end
  begin
     id 29
     name rfingers
     direction -1 -4.48946e-011 -4.97056e-027   
     length 0.414137   
     axis 3.17164e-015 -90 -90   XYZ
    dof rx
    limits (0.0 90.0)
  end
  begin
     id 30
     name rthumb
     direction -0.707107 -6.34859e-011 0.707107   
     length 0.59462   
     axis -90 -45 -2.85299e-015   XYZ
    dof rx rz
    limits (-45.0 45.0)
           (-45.0 45.0)
  end
:hierarchy
  begin
    root lhipjoint rhipjoint lowerback
    lhipjoint lfemur
    lfemur ltibia
    ltibia lfoot
    lfoot ltoes
    rhipjoint rfemur
    rfemur rtibia
    rtibia rfoot
    rfoot rtoes
    lowerback upperback
    upperback thorax
    thorax lowerneck lclavicle rclavicle
    lowerneck upperneck
    upperneck head
    lclavicle lhumerus
    lhumerus lradius
    lradius lwrist
    lwrist lhand lthumb
    lhand lfingers
    rclavicle rhumerus
    rhumerus rradius
    rradius rwrist
    rwrist rhand rthumb
    rhand rfingers
  end

#!OML:ASF E:\inclinewalkrobotboard\Project 1\Capture day 1\Session 1\subject1.ASF
:FULLY-SPECIFIED
:DEGREES
205
root 7.78136 15.9269 -12.9384 -170.152 -29.433 -181.668
lowerback -3.33511 -3.25924 -6.51781
upperback 1.29066 -4.17496 3.05688
thorax 3.91907 -2.29233 6.55898
lowerneck -5.68341 -4.60806 -6.18048
upperneck 22.4972 -8.24714 5.53864
head 8.37695 -4.40942 2.06766
rclavicle -3.926e-014 -2.22639e-014
rhumerus -37.0046 -5.39862 -80.8127
rradius 47.4224
rwrist 8.75755
rhand -20.4256 -43.6602
rfingers 7.12502
rthumb 5.92889 -73.5573
lclavicle -3.926e-014 -2.22639e-014
lhumerus -26.5413 -6.2342 85.6843
lradius 18.0641
lwrist -23.7833
lhand -39.0346 -26.1199
lfingers 7.12502
lthumb -12.037 3.51398
rfemur -27.9569 2.24849 20.9315
rtibia 35.2721
rfoot -16.2572 -5.64188
rtoes -21.3828
lfemur -12.8015 -12.3876 -16.9536
ltibia 61.574
lfoot 15.9116 -3.03879
ltoes -55.9926
206
root 7.7758 16.0303 -13.0435 -169.938 -29.055 -181.177
lowerback -3.4029 -3.09195 -6.12065
upperback 1.13693 -3.97287 3.16364
thorax 3.74124 -2.1737 6.46454
lowerneck -5.57472 -4.67584 -6.23706
upperneck 22.2493 -8.35769 5.77335
head 8.29297 -4.44213 2.14967
rclavicle -5.66536e-015 -1.51076e-014
rhumerus -37.7346 -6.79255 -81.5359
rradius 46.8746
rwrist 8.64871
rhand -20.0711 -44.3124
rfingers 7.12502
rthumb 6.27119 -74.1995
lclavicle -5.66536e-015 -1.51076e-014
lhumerus -26.9308 1.63816 81.82
lradius 14.613
lwrist -35.0831
lhand -40.1486 -26.2205
lfingers 7.12502
lthumb -13.1111 3.34734
rfemur -27.4991 3.21373 21.5059
rtibia 33.0309
rfoot -14.3116 -6.19035
rtoes -25.7043
lfemur -14.1937 -11.5588 -16.4666
ltibia 61.7182
lfoot 15.2477 -1.57449
ltoes -52.9629
207
root 7.76408 16.1312 -13.1558 -169.558 -28.801 -181.617
lowerback -3.42731 -3.06965 -6.54594
upperback 1.13088 -3.91142 3.02199
thorax 3.75929 -2.14871 6.56116
lowerneck -5.09861 -4.76477 -6.41797
upperneck 21.4744 -8.47725 6.24012
head 7.98199 -4.46952 2.34345
rclavicle 4.46272e-014 1.98785e-015
rhumerus -38.2706 -8.3567 -81.9936
rradius 45.5396
rwrist 9.08975
rhand -20.3322 -43.3305
rfingers 7.12502
rthumb 6.01909 -73.225
lclavicle 4.46272e-014 1.98785e-015
lhumerus -28.3069 10.5536 76.825
lradius 12.576
lwrist -46.2421
lhand -39.2266 -24.7794
lfingers 7.12502
lthumb -12.2221 4.84352
rfemur -26.492 3.35388 21.1195
rtibia 30.6564
rfoot -12.5757 -5.89588
rtoes -25.8098
lfemur -15.0604 -11.0243 -17.0737
ltibia 61.0296
lfoot 14.4662 -2.20138
ltoes -56.6061
208
root 7.73699 16.2128 -13.2695 -169.093 -28.2687 -182.715
lowerback -3.61247 -3.02641 -7.4525
upperback 1.28466 -3.77308 2.64075
thorax 4.03969 -2.10676 6.67238
lowerneck -4.94227 -4.84371 -6.44988
upperneck 20.8737 -8.53834 6.48014
head 7.77024 -4.46811 2.43179
rclavicle -4.12478e-014 1.59028e-015
rhumerus -38.8122 -9.89405 -82.3338
rradius 44.0645
rwrist 9.47945
rhand -20.4385 -43.179
rfingers 7.12502
rthumb 5.91648 -73.0763
lclavicle -4.12478e-014 1.59028e-015
lhumerus -30.251 16.0233 72.8264
lradius 11.4371
lwrist -51.3287
lhand -39.1313 -23.0351
lfingers 7.12502
lthumb -12.1303 6.59324
rfemur -25.0737 3.00534 20.0742
rtibia 30.7859
rfoot -13.9646 -4.24646
rtoes -16.1671
lfemur -15.3698 -10.6396 -18.6295
ltibia 61.0091
lfoot 12.5963 -0.448427
ltoes -51.5381
209
root 7.69416 16.2745 -13.3922 -168.9 -27.7878 -184.293
lowerback -3.63328 -3.04167 -8.7491
upperback 1.57787 -3.69707 2.13129
thorax 4.40372 -2.11844 6.86623
lowerneck -5.09382 -4.84903 -6.20093
upperneck 20.7178 -8.47121 6.24394
head 7.7209 -4.42347 2.31665
rclavicle -1.95803e-014 -2.22639e-014
rhumerus -39.4202 -11.2922 -82.4559
rradius 42.3147
rwrist 10.1617
rhand -20.5784 -42.3737
rfingers 7.12502
rthumb 5.78139 -72.2749
lclavicle -1.95803e-014 -2.22639e-014
lhumerus -32.4686 19.9195 69.2194
lradius 10.7109
lwrist -53.1539
lhand -39.4073 -23.0354
lfingers 7.12502
lthumb -12.3964 6.57705
rfemur -22.7628 2.11106 18.626
rtibia 28.3797
rfoot -13.0888 -3.34887
rtoes -16.4958
lfemur -14.7241 -10.4806 -20.9341
ltibia 60.1958
lfoot 10.2169 -0.167548
ltoes -51.3984
210
root 7.69347 16.3339 -13.4641 -168.969 -26.9863 -184.269
lowerback -3.31481 -2.79947 -8.88634
upperback 1.50952 -3.39485 2.08222
thorax 4.0995 -1.9547 6.93702
lowerneck -5.07407 -4.85444 -6.29299
upperneck 20.5614 -8.44578 6.28177
head 7.66959 -4.41055 2.34865
rclavicle -9.59136e-014 1.47101e-014
rhumerus -39.9939 -12.3795 -82.436
rradius 40.9917
rwrist 9.56662
rhand -19.5353 -43.0694
rfingers 7.12502
rthumb 6.78845 -72.9405
lclavicle -9.59136e-014 1.47101e-014
lhumerus -34.7024 22.3284 66.3137
lradius 10.347
lwrist -52.595
lhand -39.4256 -22.1216
lfingers 7.12502
lthumb -12.414 7.48976
rfemur -21.7602 2.56208 18.7326
rtibia 26.8152
rfoot -12.5098 -3.07032
rtoes -16.5612
lfemur -15.2156 -9.40063 -21.0954
ltibia 59.6429
lfoot 7.96801 -0.121423
ltoes -50.8063
